<svg width="69" height="63" viewBox="0 0 69 63" fill="none" xmlns="http://www.w3.org/2000/svg">
<path d="M67.2957 39.5384L64.5505 35.854L68.1006 33.0703L64.6057 29.9727L67.4078 26.5379L63.3349 24.1552L65.2855 20.2176L60.7865 18.6484L61.7965 14.4094L57.0856 13.7178L57.1026 9.33816L52.387 9.56181L51.4197 5.22931L46.8993 6.37934L44.982 2.28804L40.851 4.28749L38.0874 0.623427L34.5146 3.38919L31.0041 0.300201L28.1666 3.71408L24.0725 1.36341L22.102 5.27145L17.5946 3.73737L16.5463 7.96714L11.8369 7.32546L11.7788 11.7076L7.05469 11.9664L7.98082 16.3013L3.47033 17.4661L5.34649 21.5599L1.23539 23.5889L3.9678 27.2702L0.430432 30.0569L3.90973 33.1631L1.10767 36.598L5.1933 38.9837L3.24554 42.9096L7.74452 44.4788L6.73174 48.7295L11.4454 49.4094L11.4128 53.7977L16.1441 53.5654L17.0986 57.8949L21.6289 56.7596L23.5363 60.8361L27.68 58.8398L30.4436 62.5038L34.0136 59.7498L37.5142 62.824L40.3517 59.4101L44.4557 61.7755L46.429 57.8558L50.9365 59.3899L51.972 55.157L56.6913 55.8135L56.7494 51.4314L61.4735 51.1726L60.5346 46.8346L65.0607 45.6611L63.1718 41.5643L67.2957 39.5384Z" fill="#F10000"/>
</svg>
